<svg id="visual" viewBox="0 0 900 200" width="900" height="200" xmlns="http://www.w3.org/2000/svg" xmlns:xlink="http://www.w3.org/1999/xlink" version="1.1"><rect x="0" y="0" width="900" height="200" fill="#000"></rect><path d="M0 67L21.5 66.7C43 66.3 86 65.7 128.8 67.8C171.7 70 214.3 75 257.2 76C300 77 343 74 385.8 73.3C428.7 72.7 471.3 74.3 514.2 76C557 77.7 600 79.3 642.8 75.8C685.7 72.3 728.3 63.7 771.2 58.7C814 53.7 857 52.3 878.5 51.7L900 51L900 0L878.5 0C857 0 814 0 771.2 0C728.3 0 685.7 0 642.8 0C600 0 557 0 514.2 0C471.3 0 428.7 0 385.8 0C343 0 300 0 257.2 0C214.3 0 171.7 0 128.8 0C86 0 43 0 21.5 0L0 0Z" fill="#ff3434"></path><path d="M0 46L21.5 47.3C43 48.7 86 51.3 128.8 52C171.7 52.7 214.3 51.3 257.2 52.3C300 53.3 343 56.7 385.8 58.7C428.7 60.7 471.3 61.3 514.2 59C557 56.7 600 51.3 642.8 47.8C685.7 44.3 728.3 42.7 771.2 45.3C814 48 857 55 878.5 58.5L900 62L900 0L878.5 0C857 0 814 0 771.2 0C728.3 0 685.7 0 642.8 0C600 0 557 0 514.2 0C471.3 0 428.7 0 385.8 0C343 0 300 0 257.2 0C214.3 0 171.7 0 128.8 0C86 0 43 0 21.5 0L0 0Z" fill="#ff0461"></path><path d="M0 43L21.5 43.5C43 44 86 45 128.8 46.3C171.7 47.7 214.3 49.3 257.2 46.7C300 44 343 37 385.8 35.7C428.7 34.3 471.3 38.7 514.2 39.2C557 39.7 600 36.3 642.8 35.2C685.7 34 728.3 35 771.2 35C814 35 857 34 878.5 33.5L900 33L900 0L878.5 0C857 0 814 0 771.2 0C728.3 0 685.7 0 642.8 0C600 0 557 0 514.2 0C471.3 0 428.7 0 385.8 0C343 0 300 0 257.2 0C214.3 0 171.7 0 128.8 0C86 0 43 0 21.5 0L0 0Z" fill="#fb008c"></path><path d="M0 33L21.5 31.8C43 30.7 86 28.3 128.8 29.2C171.7 30 214.3 34 257.2 36.2C300 38.3 343 38.7 385.8 36.5C428.7 34.3 471.3 29.7 514.2 29.3C557 29 600 33 642.8 32.8C685.7 32.7 728.3 28.3 771.2 26.5C814 24.7 857 25.3 878.5 25.7L900 26L900 0L878.5 0C857 0 814 0 771.2 0C728.3 0 685.7 0 642.8 0C600 0 557 0 514.2 0C471.3 0 428.7 0 385.8 0C343 0 300 0 257.2 0C214.3 0 171.7 0 128.8 0C86 0 43 0 21.5 0L0 0Z" fill="#d900bf"></path><path d="M0 11L21.5 11.8C43 12.7 86 14.3 128.8 14.7C171.7 15 214.3 14 257.2 14.3C300 14.7 343 16.3 385.8 16.2C428.7 16 471.3 14 514.2 14.3C557 14.7 600 17.3 642.8 18.7C685.7 20 728.3 20 771.2 19.2C814 18.3 857 16.7 878.5 15.8L900 15L900 0L878.5 0C857 0 814 0 771.2 0C728.3 0 685.7 0 642.8 0C600 0 557 0 514.2 0C471.3 0 428.7 0 385.8 0C343 0 300 0 257.2 0C214.3 0 171.7 0 128.8 0C86 0 43 0 21.5 0L0 0Z" fill="#6600ff"></path></svg>